<?xml version="1.0" standalone="no"?>
<!DOCTYPE svg PUBLIC "-//W3C//DTD SVG 20010904//EN"
 "http://www.w3.org/TR/2001/REC-SVG-20010904/DTD/svg10.dtd">
<svg version="1.0" xmlns="http://www.w3.org/2000/svg"
 width="800.000000pt" height="800.000000pt" viewBox="0 0 800.000000 800.000000"
 preserveAspectRatio="xMidYMid meet">

<g transform="translate(0.000000,800.000000) scale(0.100000,-0.100000)"
fill="#cccccc" stroke="none">
<path d="M1196 7484 c-255 -46 -490 -224 -608 -459 -14 -27 -39 -88 -54 -135
l-29 -85 0 -2020 0 -2020 28 -90 c110 -353 397 -585 760 -615 62 -6 257 -10
434 -10 l321 0 4 -472 c4 -442 6 -478 26 -549 67 -245 241 -426 482 -501 l75
-23 2140 0 2140 0 75 23 c124 39 206 88 296 177 90 89 141 171 183 293 l26 77
0 2140 c0 2040 -1 2143 -18 2204 -70 247 -259 436 -504 503 -73 20 -106 22
-550 26 l-473 4 0 326 c-1 479 -13 569 -100 747 -107 218 -284 367 -525 442
l-90 28 -1980 2 c-1686 1 -1992 -1 -2059 -13z m4017 -474 c119 -45 192 -115
239 -230 22 -53 23 -68 26 -442 l3 -387 -1413 -4 c-1587 -3 -1460 3 -1628 -79
-69 -34 -102 -59 -175 -133 -102 -102 -152 -185 -187 -311 l-23 -79 -3 -1412
-3 -1413 -353 0 c-210 0 -376 4 -412 11 -123 22 -224 100 -281 218 l-28 56 0
1970 0 1970 27 57 c47 100 138 181 241 213 34 11 406 14 1979 14 1913 1 1938
1 1991 -19z m1683 -1549 c49 -22 111 -92 124 -140 6 -23 10 -769 10 -2104 0
-2284 5 -2104 -63 -2176 -18 -18 -50 -42 -72 -52 -39 -18 -115 -19 -2120 -19
-2005 0 -2081 1 -2120 19 -22 10 -54 34 -72 52 -68 72 -63 -109 -63 2184 0
2293 -5 2112 63 2184 18 18 50 42 72 52 39 18 115 19 2120 19 1999 0 2082 -1
2121 -19z"/>
</g>
</svg>
